<svg width="32" height="33" viewBox="0 0 32 33" fill="none" xmlns="http://www.w3.org/2000/svg">
<g clip-path="url(#clip0)">
<path d="M16.2799 4.06356C16.1134 3.94099 15.8865 3.94099 15.7201 4.06356L4.03054 12.671V29.7723C4.03054 30.3568 4.50442 30.8306 5.08892 30.8306H26.911C27.4955 30.8306 27.9694 30.3568 27.9694 29.7723V12.671L16.2799 4.06356Z" fill="#EAF2FF"/>
<path d="M16.2799 4.06356C16.1134 3.94099 15.8865 3.94099 15.7201 4.06356L13.544 5.66587L23.8326 13.1769C24.2723 13.5007 24.5319 14.0142 24.5319 14.5604V30.7931C24.5319 30.8058 24.5305 30.8181 24.5301 30.8307H26.9111C27.4956 30.8307 27.9694 30.3568 27.9694 29.7723V12.6711L16.2799 4.06356Z" fill="#BCD6F9"/>
<path d="M16.2799 5.50737L29.3175 15.1074C29.8075 15.4683 30.4754 15.4683 30.9655 15.1074C31.7199 14.552 31.7199 13.4247 30.9655 12.8692L16.7838 2.42681C16.3176 2.08356 15.6823 2.08356 15.2161 2.42681L1.03442 12.8693C0.280107 13.4247 0.280107 14.5521 1.03442 15.1075C1.52448 15.4684 2.19236 15.4684 2.68248 15.1075L15.7201 5.50737C15.8865 5.38481 16.1134 5.38481 16.2799 5.50737Z" fill="#D67A7A"/>
<path d="M16.2799 5.50737L29.3175 15.1074C29.8075 15.4683 30.4754 15.4683 30.9655 15.1074C31.7199 14.552 31.7199 13.4247 30.9655 12.8692L16.7838 2.42681C16.3176 2.08356 15.6823 2.08356 15.2161 2.42681L1.03442 12.8693C0.280107 13.4247 0.280107 14.5521 1.03442 15.1075C1.52448 15.4684 2.19236 15.4684 2.68248 15.1075L15.7201 5.50737C15.8865 5.38481 16.1134 5.38481 16.2799 5.50737Z" fill="#FECE85"/>
<path d="M20.8257 26.1837H11.1743C10.4222 26.1837 9.8125 25.574 9.8125 24.8219V17.2708C9.8125 16.5187 10.4222 15.909 11.1743 15.909H20.8257C21.5778 15.909 22.1875 16.5187 22.1875 17.2708V24.8219C22.1875 25.5739 21.5778 26.1837 20.8257 26.1837Z" fill="#9BC4F9"/>
<path d="M20.8257 15.909H18.0852C18.4522 15.909 18.7497 16.2066 18.7497 16.5736V16.9964C18.7497 16.9979 18.75 16.9992 18.75 17.0007V25.0919C18.75 25.0934 18.7498 25.0947 18.7497 25.0962V25.5191C18.7497 25.8861 18.4522 26.1837 18.0851 26.1837H20.8256C21.5777 26.1837 22.1874 25.574 22.1874 24.8219V17.2708C22.1875 16.5187 21.5778 15.909 20.8257 15.909Z" fill="#7FB2F9"/>
<path d="M11.9021 15.909C12.2692 15.909 12.5667 16.2066 12.5667 16.5736V25.5191C12.5667 25.8861 12.2691 26.1837 11.9021 26.1837H16V15.909H11.9021Z" fill="#7FB2F9"/>
<path d="M30.9656 12.8693L28.5099 11.0611V12.3263C28.5099 12.9829 28.2747 13.5846 27.8843 14.0521L29.3175 15.1074C29.8076 15.4683 30.4755 15.4683 30.9656 15.1074C31.7198 14.5521 31.7198 13.4247 30.9656 12.8693Z" fill="#ED9B31"/>
<path d="M31.2428 12.493L17.0617 2.05094C16.4266 1.58331 15.5734 1.58331 14.9382 2.05094L5.82212 8.76356C5.61368 8.91706 5.56912 9.21044 5.72262 9.41894C5.87606 9.62731 6.1695 9.672 6.378 9.51844L15.4942 2.80581C15.7967 2.58312 16.2033 2.583 16.5059 2.80581L30.6869 13.2479C31.1872 13.6163 31.1873 14.3626 30.6869 14.7311C30.3604 14.9716 29.9214 14.9716 29.5949 14.7311L16.5577 5.13138C16.2241 4.88575 15.7759 4.88581 15.4421 5.13144L2.40512 14.7311C2.07856 14.9716 1.63956 14.9716 1.31306 14.7311C0.812746 14.3627 0.812684 13.6164 1.31306 13.2479L4.58425 10.8392C4.79268 10.6857 4.83725 10.3923 4.68375 10.1838C4.53025 9.97538 4.23681 9.93069 4.02837 10.0843L0.757184 12.493C-0.252379 13.2364 -0.252441 14.7426 0.757184 15.486C1.41637 15.9714 2.30193 15.9713 2.961 15.486L3.56231 15.0434V29.7728C3.56231 30.6148 4.24731 31.2998 5.08937 31.2998H26.9106C27.7526 31.2998 28.4377 30.6148 28.4377 29.7728V15.0432L29.039 15.4859C29.6978 15.9711 30.5836 15.9714 31.2428 15.4859C32.2524 14.7426 32.2524 13.2364 31.2428 12.493ZM27.5002 29.7727C27.5002 30.0978 27.2357 30.3623 26.9106 30.3623H5.08937C4.76425 30.3623 4.49975 30.0978 4.49975 29.7727V14.3533L16.0019 5.88631L27.5002 14.3529V29.7727H27.5002Z" fill="black"/>
<path d="M9.34406 17.2718V24.8225C9.34406 25.8318 10.1652 26.653 11.1746 26.653H20.8255C21.8349 26.653 22.656 25.8318 22.656 24.8225V24.5293C22.656 24.2704 22.4462 24.0605 22.1872 24.0605C21.9283 24.0605 21.7185 24.2703 21.7185 24.5293V24.8225C21.7185 25.3149 21.3179 25.7155 20.8255 25.7155H16.4687V21.6608H21.7185V22.3378C21.7185 22.5967 21.9283 22.8066 22.1872 22.8066C22.4462 22.8066 22.656 22.5968 22.656 22.3378V17.2717C22.656 16.2623 21.8349 15.4412 20.8255 15.4412H11.1745C10.1652 15.4413 9.34406 16.2624 9.34406 17.2718ZM16.4687 16.3788H20.8255C21.3179 16.3788 21.7185 16.7794 21.7185 17.2718V20.7233H16.4687V16.3788ZM15.5312 25.7155H11.1745C10.6821 25.7155 10.2815 25.3149 10.2815 24.8225V21.6608H15.5312V25.7155ZM15.5312 20.7233H10.2815V17.2718C10.2815 16.7793 10.6821 16.3788 11.1745 16.3788H15.5312V20.7233Z" fill="black"/>
</g>
<defs>
<clipPath id="clip0">
<rect width="32" height="32" fill="white" transform="translate(0 0.5)"/>
</clipPath>
</defs>
</svg>
