<svg width="40" height="40" viewBox="0 0 40 40" fill="none" xmlns="http://www.w3.org/2000/svg">
<g clip-path="url(#clip0)">
<path d="M33.2127 18.9445C32.9578 18.9404 32.7061 18.9502 32.4581 18.973C32.1985 18.9969 31.9992 18.7489 32.071 18.4983C32.3071 17.6748 32.4265 16.8023 32.4097 15.8991C32.3202 11.0819 28.3223 7.20344 23.5045 7.25352C19.3069 7.29711 15.8129 10.2752 14.9756 14.2338C14.9237 14.4796 14.6508 14.6056 14.4309 14.4843C13.062 13.7287 11.4919 13.2927 9.82111 13.2782C4.47166 13.2315 0.0488458 17.5727 0.000408335 22.9223C-0.046701 28.1249 3.98822 32.3949 9.09643 32.7255L9.09463 32.7469H33.0983C36.9303 32.7469 40.033 29.6238 39.9997 25.7841C39.9675 22.0587 36.9377 19.0052 33.2127 18.9445Z" fill="#97E7EF"/>
<path d="M39.9994 25.7841C40.0219 28.3288 38.6666 30.5595 36.6334 31.7729C37.2611 30.7233 37.6177 29.4921 37.6064 28.1779C37.5741 24.4522 34.5438 21.3985 30.8189 21.338C30.564 21.3339 30.3123 21.3436 30.0645 21.3662C29.8048 21.3904 29.6055 21.1427 29.6773 20.8918C29.9137 20.0681 30.033 19.1959 30.0161 18.2923C29.9266 13.475 25.9289 9.5968 21.1108 9.64688C19.3245 9.66539 17.6658 10.2148 16.2846 11.1467C17.8514 8.82235 20.4977 7.28547 23.5045 7.25399C28.3219 7.20399 32.3202 11.0822 32.4098 15.8995C32.426 16.8023 32.3066 17.6752 32.071 18.4981C31.9992 18.7491 32.1985 18.9967 32.4583 18.9733C32.7059 18.9499 32.9577 18.9402 33.2127 18.9442C36.9377 19.0055 39.9671 22.0584 39.9994 25.7841Z" fill="#55D1E7"/>
</g>
<defs>
<clipPath id="clip0">
<rect width="40" height="40" fill="white"/>
</clipPath>
</defs>
</svg>
