<svg width="40" height="40" viewBox="0 0 40 40" fill="none" xmlns="http://www.w3.org/2000/svg">
<g clip-path="url(#clip0)">
<path d="M32.8247 18.9754C32.5774 18.9714 32.333 18.9809 32.0924 19.0031C31.8404 19.0263 31.6469 18.7856 31.7166 18.5423C31.9457 17.7431 32.0616 16.8961 32.0454 16.0195C31.9585 11.3437 28.0779 7.57916 23.4016 7.62775C19.3273 7.6701 15.9359 10.5607 15.1232 14.4031C15.0728 14.6416 14.8079 14.764 14.5945 14.6462C13.2657 13.9128 11.7418 13.4896 10.1201 13.4755C4.92773 13.4302 0.634752 17.6439 0.587798 22.8363C0.542095 27.8862 4.45851 32.0308 9.41672 32.3517L9.415 32.3724H32.7138C36.4333 32.3724 39.4448 29.3411 39.4126 25.614C39.3812 21.9982 36.4404 19.0343 32.8247 18.9754Z" fill="#97E7EF"/>
<path d="M39.4122 25.6141C39.4342 28.0839 38.1185 30.2493 36.1452 31.427C36.7544 30.4082 37.1006 29.2132 37.0896 27.9375C37.0582 24.3212 34.117 21.3572 30.5014 21.2985C30.254 21.2946 30.0096 21.3039 29.7692 21.3259C29.517 21.3494 29.3237 21.1089 29.3934 20.8654C29.6228 20.0659 29.7387 19.2193 29.7223 18.3423C29.6353 13.6664 25.7552 9.90211 21.0785 9.95063C19.3448 9.96867 17.7347 10.502 16.394 11.4064C17.9148 9.15031 20.4833 7.65851 23.4019 7.62797C28.0778 7.57945 31.9588 11.3438 32.0457 16.0196C32.0613 16.8959 31.9455 17.7432 31.7168 18.542C31.6471 18.7855 31.8406 19.026 32.0927 19.0032C32.3331 18.9805 32.5774 18.9711 32.8249 18.975C36.4404 19.0346 39.3809 21.9978 39.4122 25.6141Z" fill="#55D1E7"/>
<path d="M37.8796 20.5471C36.5288 19.1858 34.737 18.4191 32.8342 18.3882C32.6777 18.3856 32.5205 18.3882 32.3637 18.3955C32.5572 17.6184 32.6475 16.8169 32.6325 16.0085C32.5402 11.0432 28.449 7.03993 23.4912 7.03993C23.4594 7.03993 23.4271 7.04009 23.3953 7.0404C21.3066 7.06212 19.2715 7.80704 17.6645 9.13798C16.1556 10.3878 15.0804 12.1024 14.6149 13.9917C13.2325 13.2824 11.6868 12.9017 10.1251 12.8881C10.0957 12.8878 10.0665 12.8877 10.0372 12.8877C8.07371 12.8877 6.16973 13.461 4.52566 14.5483C4.25511 14.7273 4.18074 15.0916 4.35972 15.3622C4.53863 15.6328 4.90308 15.7069 5.17355 15.5282C6.64637 14.5541 8.3559 14.05 10.1148 14.0628C11.582 14.0756 13.0329 14.4551 14.3105 15.1604C14.5765 15.3072 14.8874 15.319 15.1632 15.1928C15.4357 15.0682 15.6354 14.8185 15.6976 14.5247C16.0667 12.7796 17.0312 11.1879 18.4137 10.0428C19.8137 8.88314 21.5873 8.23408 23.4074 8.21517C23.4353 8.21493 23.463 8.21478 23.4909 8.21478C27.8115 8.21478 31.3774 11.7038 31.4578 16.0305C31.4727 16.8296 31.3697 17.6202 31.1517 18.3806C31.0651 18.683 31.1331 19.0082 31.3336 19.2503C31.5325 19.4903 31.8356 19.6168 32.146 19.5881C32.367 19.5678 32.592 19.5593 32.8149 19.5628C36.1003 19.6163 38.7965 22.3333 38.8249 25.6194C38.8392 27.2627 38.2103 28.8101 37.0539 29.9764C35.8974 31.1429 34.356 31.7854 32.7135 31.7854H17.2592C16.9348 31.7854 16.6719 32.0483 16.6719 32.3727C16.6719 32.6971 16.9347 32.9601 17.2592 32.9601H32.7138C34.672 32.9601 36.5096 32.1942 37.8884 30.8035C39.2669 29.4129 40.0168 27.5683 39.9998 25.6093C39.9833 23.7061 39.2303 21.9084 37.8796 20.5471Z" fill="black"/>
<path d="M13.5526 31.7851H9.75575L9.4545 31.7656C4.76925 31.4624 1.13245 27.5424 1.17503 22.8417C1.19089 21.086 1.72612 19.3902 2.72284 17.9374C2.90628 17.6699 2.83823 17.3044 2.57081 17.1209C2.30331 16.9373 1.93776 17.0054 1.75425 17.2728C0.624871 18.9189 0.0184633 20.8408 0.00041638 22.8309C-0.0458337 27.9537 3.76621 32.2575 8.78223 32.8814L8.77567 32.9597H13.5526C13.877 32.9597 14.14 32.6967 14.14 32.3724C14.14 32.048 13.8769 31.7851 13.5526 31.7851Z" fill="black"/>
<path d="M18.923 21.7444C18.5986 21.7444 18.3357 21.4814 18.3357 21.1571C18.3357 16.8931 13.9337 14.9891 13.8892 14.9703C13.5903 14.8444 13.45 14.4999 13.5761 14.201C13.702 13.9021 14.0466 13.7619 14.3453 13.8878C14.3981 13.9101 15.6541 14.4464 16.9156 15.5951C18.6131 17.141 19.5104 19.0642 19.5104 21.1571C19.5103 21.4814 19.2474 21.7444 18.923 21.7444Z" fill="black"/>
</g>
<defs>
<clipPath id="clip0">
<rect width="40" height="40" fill="white"/>
</clipPath>
</defs>
</svg>
