<svg width="20" height="20" viewBox="0 0 20 20" fill="none" xmlns="http://www.w3.org/2000/svg">
<path d="M12.9167 15H12.0834C11.8532 15 11.6667 15.1866 11.6667 15.4167V18.3334H1.66668V1.66668H11.6667V4.58336C11.6667 4.81348 11.8532 5.00004 12.0834 5.00004H12.9167C13.1468 5.00004 13.3334 4.81348 13.3334 4.58336V1.66668C13.3333 0.746211 12.5871 0 11.6667 0H1.66668C0.746211 0 0 0.746211 0 1.66668V18.3334C0 19.2538 0.746211 20 1.66668 20H11.6667C12.5871 20 13.3334 19.2538 13.3334 18.3333V15.4166C13.3333 15.1866 13.1468 15 12.9167 15Z" fill="#001A34"/>
<path d="M19.8649 9.69254L14.8649 5.10922C14.7429 4.99812 14.5659 4.96761 14.4157 5.03515C14.2643 5.10148 14.1667 5.25121 14.1667 5.4164V6.24976C14.1667 6.36777 14.2167 6.48047 14.3046 6.55941L17.2011 9.16644H5.41668C5.18637 9.16644 5 9.35281 5 9.58312V10.4164C5 10.6468 5.18637 10.8331 5.41668 10.8331H17.2011L14.3046 13.4402C14.2167 13.5191 14.1667 13.6318 14.1667 13.7498V14.5831C14.1667 14.7483 14.2643 14.8981 14.4157 14.9644C14.4694 14.9884 14.5268 14.9998 14.5834 14.9998C14.6855 14.9998 14.7864 14.9619 14.8649 14.8903L19.8649 10.307C19.9512 10.228 20 10.1166 20 9.99976C20 9.88297 19.9512 9.77148 19.8649 9.69254Z" fill="#001A34"/>
</svg>
