<svg width="40" height="40" viewBox="0 0 40 40" fill="none" xmlns="http://www.w3.org/2000/svg">
<path d="M25.6756 9.83191L11.7435 14.6224L7.89158 22.7024C7.79031 22.9033 7.69329 23.107 7.60029 23.3134L7.58624 23.3429C8.40556 24.545 9.39581 25.6211 10.5225 26.5367L15.0532 29.5435H25.6401L29.2914 26.5881C30.4437 25.6612 31.4556 24.5674 32.2902 23.3421V16.8861L25.6756 9.83191Z" fill="#E94444"/>
<path d="M29.2907 14.4993L18.4906 12.8753L10.5226 14.9386V28.3016V29.5772L15.4507 32.9123H25.9937L29.2907 29.2481V14.4993Z" fill="#FFBD86"/>
<path d="M28.6818 30.9849L28.3957 32.9255C28.1365 34.684 27.3019 36.307 26.0225 37.5408C25.9338 37.6262 25.7984 37.6406 25.6938 37.5755L24.1647 36.624C23.4404 38.1693 22.0941 39.3344 20.4608 39.8296L19.8985 40L19.4336 39.8515C17.8378 39.3415 16.5267 38.1896 15.8156 36.6727L15.7929 36.624L14.2637 37.5755C14.1591 37.6406 14.0237 37.6262 13.9351 37.5408C12.6556 36.307 11.821 34.684 11.5618 32.9255L11.2758 30.9849L11.085 29.2294L17.9835 25.8245H24.201L28.8198 29.5846L28.6818 30.9849Z" fill="#F9F7F8"/>
<path d="M24.2012 25.8245H17.9837L11.0852 29.2294L11.276 30.9849L11.562 32.9255C11.8211 34.6831 12.6549 36.3053 13.9333 37.5388C14.0226 37.625 14.1585 37.6411 14.2639 37.5754L15.793 36.6239L15.8157 36.6726C16.5269 38.1895 17.838 39.3414 19.4338 39.8514L19.8986 39.9999L20.4609 39.8295C22.0942 39.3344 23.4404 38.1693 24.1648 36.6239L25.6939 37.5754C25.7992 37.6409 25.935 37.6251 26.0242 37.539C27.271 36.3361 28.0952 34.7622 28.3756 33.055C27.9683 33.8748 27.4209 34.6261 26.7527 35.2699C26.665 35.3544 26.5301 35.3665 26.4267 35.3021L25.4902 34.7195C25.1795 34.5261 24.7727 34.6253 24.5817 34.9375C23.8157 36.1896 22.613 37.1259 21.1937 37.5562L20.6314 37.7266L20.1665 37.5781C18.7773 37.1342 17.604 36.2039 16.8543 34.9697C16.668 34.663 16.2721 34.5601 15.9619 34.7406L14.9965 35.3021C14.8919 35.3672 14.7566 35.3528 14.6679 35.2674C14.2096 34.8255 13.8086 34.3334 13.4706 33.8031C13.1265 33.2632 13.337 32.5328 13.9223 32.2733C14.2679 32.1201 14.597 31.9241 14.904 31.6869L17.3431 29.8032C17.5585 29.6369 17.823 29.5466 18.0953 29.5466H21.8622C22.1344 29.5466 22.3989 29.6369 22.6144 29.8032L25.0535 31.6869C25.8918 32.3344 26.8936 32.6766 27.9503 32.6766C28.1136 32.6766 28.2756 32.6678 28.4361 32.6514L28.6818 30.9849L28.82 29.5847L24.2012 25.8245Z" fill="#EFEDEF"/>
<path d="M23.9114 28.9012L23.6898 29.9386C23.468 30.9762 22.5514 31.7177 21.4904 31.7177C20.9698 31.7177 20.4654 31.5372 20.063 31.2068L20.0516 31.1974C19.9627 31.1244 19.8345 31.1244 19.7455 31.1974L19.7342 31.2068C19.3319 31.5372 18.8274 31.7177 18.3068 31.7177C17.2458 31.7177 16.329 30.9762 16.1074 29.9386L15.8858 28.9012L15.4507 26.5878H24.3404L23.9114 28.9012Z" fill="#FFBD86"/>
<path d="M22.4668 23.9705C23.2438 23.9705 23.9965 24.242 24.5945 24.7383L28.297 27.8105C28.6923 28.1385 29.1899 28.3181 29.7035 28.3181H30.8403C31.1145 28.3181 31.277 28.6248 31.1231 28.8517L30.5514 29.6944C29.5355 31.1921 27.467 31.5229 26.0346 30.4168L23.5954 28.5332C23.0989 28.1497 22.4894 27.9418 21.8621 27.9418H18.0955C17.4682 27.9418 16.8587 28.1498 16.3623 28.5332L13.9232 30.4168C12.4908 31.523 10.4223 31.1921 9.40634 29.6944L8.83466 28.8517C8.68074 28.6247 8.84324 28.3181 9.11745 28.3181H10.2542C10.7679 28.3181 11.2654 28.1386 11.6607 27.8105L15.3633 24.7383C15.9613 24.2421 16.7139 23.9705 17.4909 23.9705H22.4668Z" fill="#F9F7F8"/>
<path d="M11.1057 30.7885L10.7333 30.2394C10.4946 29.8876 10.7467 29.4121 11.1718 29.4121H11.9536C12.4673 29.4121 12.9648 29.2326 13.3601 28.9045L17.0627 25.8323C17.6607 25.3361 18.4132 25.0645 19.1903 25.0645H24.1663C24.512 25.0645 24.8528 25.1186 25.1774 25.2219L24.5945 24.7382C23.9965 24.242 23.2439 23.9704 22.4669 23.9704H17.4909C16.7139 23.9704 15.9613 24.242 15.3633 24.7382L11.6607 27.8105C11.2654 28.1384 10.7679 28.318 10.2542 28.318H9.11745C8.84324 28.318 8.68074 28.6247 8.83466 28.8516L9.40634 29.6943C9.85981 30.3629 10.5244 30.7992 11.2471 30.9788C11.1986 30.9178 11.1503 30.8541 11.1057 30.7885Z" fill="#EFEDEF"/>
<path d="M21.7923 23.1791L21.2647 23.9706C20.9781 24.4005 20.4955 24.6588 19.9788 24.6588C19.4621 24.6588 18.9796 24.4005 18.6929 23.9706L18.1653 23.1791C18.0771 23.0467 18.172 22.8693 18.3311 22.8693H21.6264C21.7857 22.8693 21.8806 23.0466 21.7923 23.1791Z" fill="#F6A96C"/>
<path d="M19.9789 18.3815C19.6465 18.3815 19.377 18.1121 19.377 17.7797V17.488C19.377 17.1555 19.6465 16.8861 19.9789 16.8861C20.3112 16.8861 20.5807 17.1555 20.5807 17.488V17.7797C20.5807 18.1121 20.3112 18.3815 19.9789 18.3815Z" fill="#F37C7C"/>
<path d="M15.4277 21.4154C14.8 21.4154 14.1733 21.2241 13.6334 20.8433L13.1956 20.5345C12.924 20.3429 12.8591 19.9675 13.0507 19.6958C13.2422 19.4242 13.6178 19.3593 13.8894 19.5508L14.3272 19.8596C14.9672 20.311 15.806 20.3283 16.4641 19.9038L17.0328 19.537C17.312 19.3567 17.6845 19.4372 17.8648 19.7164C18.045 19.9957 17.9646 20.3682 17.6853 20.5484L17.1166 20.9153C16.599 21.2492 16.0129 21.4154 15.4277 21.4154Z" fill="#F6A96C"/>
<path d="M24.53 21.4154C23.9447 21.4154 23.3588 21.2493 22.8412 20.9154L22.2725 20.5484C21.9932 20.3683 21.9128 19.9958 22.093 19.7165C22.2733 19.4373 22.6459 19.3569 22.925 19.5371L23.4937 19.904C24.1518 20.3284 24.9905 20.3112 25.6305 19.8597L26.0683 19.5509C26.3398 19.3593 26.7154 19.4243 26.907 19.6959C27.0986 19.9675 27.0337 20.3429 26.7621 20.5346L26.3243 20.8434C25.7845 21.224 25.1576 21.4154 24.53 21.4154Z" fill="#F6A96C"/>
<path d="M10.5226 14.9386V22.1589C10.7994 21.8225 11.1027 21.4645 11.4258 21.0993C13.2346 19.0547 14.8644 17.6905 16.015 17.258L16.0172 17.2572C17.2752 16.7838 18.5945 16.5437 19.9385 16.5437C22.2338 16.5437 24.4679 17.2524 26.3995 18.5932C27.4985 19.3561 28.4721 20.3024 29.2906 21.3916V14.4994L18.4904 12.8755L10.5226 14.9386Z" fill="#F6A96C"/>
<path d="M34.7876 13.2937L32.4199 9.43445L16.7893 12.5438L13.7084 16.3594L15.4506 15.7548V15.7556C16.8573 15.226 18.3668 14.9387 19.9388 14.9387C25.3683 14.9387 30.0619 18.3669 32.2904 23.3422C33.9234 20.9484 34.8775 18.0547 34.8775 14.9387C34.8774 14.3826 34.847 13.8337 34.7876 13.2937Z" fill="#EE6161"/>
<path d="M26.9491 1.74456C24.8586 0.630739 22.4721 0 19.9387 0C15.1271 0 10.8468 2.27499 8.11516 5.80825L7.20099 8.51578L26.2633 5.95864L26.8277 4.7437L28.4724 2.90421L26.9491 1.74456Z" fill="#F79595"/>
<path d="M19.0504 4.38548C11.3058 3.66727 8.11518 5.80825 8.11518 5.80825C6.16197 8.33281 5 11.5001 5 14.9387C5 17.3477 5.57055 19.6235 6.58327 21.6385L11.0852 16.0035L24.5069 4.84497L19.0504 4.38548Z" fill="#EE6161"/>
<path d="M34.7875 13.2937H34.7867C22.0693 10.3518 15.4505 15.7548 15.4505 15.7548V15.7556C11.9983 17.0532 7.58634 23.343 7.58634 23.343C7.2164 22.7997 6.88097 22.2307 6.58325 21.6393C6.58325 21.6393 6.58325 21.6393 6.58325 21.6385C6.59208 21.5254 7.51251 10.2218 19.0504 4.38549H19.0512C21.2684 3.26364 23.878 2.34401 26.9491 1.74457C31.2077 4.01154 34.2387 8.27905 34.7875 13.2937Z" fill="#F37C7C"/>
</svg>
