<svg width="40" height="40" viewBox="0 0 40 40" fill="none" xmlns="http://www.w3.org/2000/svg">
<path d="M25.5692 10.1289L12.0441 14.7795L8.30472 22.6235C8.20641 22.8185 8.11222 23.0163 8.02193 23.2166L8.0083 23.2452C8.80368 24.4122 9.765 25.4569 10.8588 26.3457L15.2571 29.2647H25.5348L29.0793 26.3956C30.198 25.4958 31.1804 24.434 31.9906 23.2444V16.977L25.5692 10.1289Z" fill="#E94444"/>
<path d="M29.0787 14.66L18.594 13.0835L10.8589 15.0864V28.0591V29.2974L15.6429 32.5351H25.878L29.0787 28.9779V14.66Z" fill="#FFBD86"/>
<path d="M28.4875 30.6639L28.2097 32.5479C27.9581 34.255 27.1479 35.8306 25.9059 37.0283C25.8198 37.1113 25.6883 37.1252 25.5868 37.062L24.1023 36.1384C23.3991 37.6385 22.0922 38.7696 20.5067 39.2502L19.9608 39.4157L19.5094 39.2715C17.9603 38.7764 16.6875 37.6582 15.9972 36.1856L15.9751 36.1384L14.4906 37.062C14.3891 37.1252 14.2576 37.1113 14.1716 37.0283C12.9295 35.8306 12.1193 34.255 11.8677 32.5479L11.59 30.6639L11.4048 28.9597L18.1017 25.6543H24.1376L28.6215 29.3046L28.4875 30.6639Z" fill="#F9F7F8"/>
<path d="M24.1381 25.6543H18.1022L11.4053 28.9597L11.5904 30.6639L11.8682 32.5479C12.1196 34.2541 12.9291 35.8289 14.1702 37.0264C14.2569 37.1101 14.3888 37.1257 14.4911 37.062L15.9755 36.1383L15.9976 36.1855C16.688 37.6581 17.9608 38.7764 19.51 39.2714L19.9612 39.4156L20.5071 39.2502C22.0926 38.7695 23.3995 37.6384 24.1027 36.1383L25.5872 37.062C25.6894 37.1255 25.8212 37.1102 25.9079 37.0266C27.1182 35.8588 27.9183 34.3309 28.1905 32.6736C27.7952 33.4694 27.2638 34.1988 26.6151 34.8238C26.5299 34.9058 26.399 34.9175 26.2986 34.8551L25.3895 34.2894C25.0878 34.1018 24.6929 34.198 24.5075 34.5011C23.7639 35.7166 22.5963 36.6256 21.2185 37.0433L20.6726 37.2087L20.2213 37.0645C18.8727 36.6336 17.7336 35.7305 17.0058 34.5324C16.8249 34.2347 16.4406 34.1347 16.1395 34.3099L15.2023 34.8551C15.1008 34.9183 14.9694 34.9043 14.8833 34.8213C14.4384 34.3923 14.0491 33.9146 13.721 33.3999C13.387 32.8757 13.5913 32.1667 14.1595 31.9147C14.495 31.766 14.8144 31.5757 15.1125 31.3455L17.4803 29.5168C17.6895 29.3553 17.9463 29.2677 18.2106 29.2677H21.8674C22.1317 29.2677 22.3885 29.3553 22.5977 29.5168L24.9655 31.3455C25.7794 31.974 26.7518 32.3063 27.7777 32.3063C27.9362 32.3063 28.0935 32.2977 28.2493 32.2818L28.4878 30.6639L28.6219 29.3047L24.1381 25.6543Z" fill="#EFEDEF"/>
<path d="M23.8565 28.6411L23.6414 29.6482C23.4261 30.6555 22.5363 31.3754 21.5062 31.3754C21.0009 31.3754 20.5112 31.2001 20.1206 30.8794L20.1095 30.8703C20.0232 30.7994 19.8987 30.7994 19.8124 30.8703L19.8013 30.8794C19.4108 31.2001 18.921 31.3754 18.4157 31.3754C17.3857 31.3754 16.4957 30.6555 16.2805 29.6482L16.0654 28.6411L15.6431 26.3954H24.273L23.8565 28.6411Z" fill="#FFBD86"/>
<path d="M22.4542 23.8545C23.2085 23.8545 23.9392 24.1181 24.5197 24.5998L28.1141 27.5823C28.4979 27.9007 28.9809 28.0751 29.4795 28.0751H30.5831C30.8493 28.0751 31.007 28.3728 30.8576 28.5931L30.3026 29.4112C29.3164 30.8652 27.3083 31.1863 25.9177 30.1125L23.5499 28.2839C23.0679 27.9116 22.4762 27.7098 21.8673 27.7098H18.2107C17.6017 27.7098 17.01 27.9117 16.5281 28.2839L14.1602 30.1125C12.7697 31.1863 10.7616 30.8652 9.77535 29.4112L9.22037 28.5931C9.07095 28.3727 9.22871 28.0751 9.4949 28.0751H10.5985C11.0971 28.0751 11.5801 27.9008 11.9639 27.5823L15.5583 24.5998C16.1388 24.1182 16.8694 23.8545 17.6238 23.8545H22.4542Z" fill="#F9F7F8"/>
<path d="M11.4251 30.4733L11.0635 29.9403C10.8319 29.5987 11.0766 29.1371 11.4893 29.1371H12.2482C12.7469 29.1371 13.2299 28.9628 13.6136 28.6444L17.208 25.6619C17.7885 25.1802 18.5191 24.9165 19.2735 24.9165H24.1041C24.4397 24.9165 24.7705 24.969 25.0857 25.0693L24.5198 24.5998C23.9392 24.1181 23.2087 23.8544 22.4544 23.8544H17.6238C16.8695 23.8544 16.1388 24.118 15.5583 24.5998L11.9639 27.5822C11.5801 27.9006 11.0971 28.075 10.5985 28.075H9.4949C9.22871 28.075 9.07095 28.3727 9.22037 28.593L9.77535 29.4111C10.2156 30.0601 10.8608 30.4837 11.5624 30.658C11.5153 30.5988 11.4683 30.5369 11.4251 30.4733Z" fill="#EFEDEF"/>
<path d="M21.7994 23.0862L21.2872 23.8546C21.009 24.272 20.5405 24.5227 20.0389 24.5227C19.5373 24.5227 19.0689 24.272 18.7906 23.8546L18.2784 23.0862C18.1927 22.9577 18.2849 22.7854 18.4394 22.7854H21.6384C21.793 22.7854 21.8852 22.9576 21.7994 23.0862Z" fill="#F6A96C"/>
<path d="M10.8589 15.0864V22.0959C11.1276 21.7693 11.422 21.4218 11.7357 21.0671C13.4916 19.0823 15.0738 17.7579 16.1908 17.3381L16.1929 17.3373C17.4142 16.8777 18.6949 16.6447 19.9997 16.6447C22.2279 16.6447 24.3968 17.3327 26.272 18.6343C27.3388 19.3749 28.284 20.2936 29.0785 21.3509V14.6601L18.5939 13.0836L10.8589 15.0864Z" fill="#F6A96C"/>
<path d="M34.4151 13.4896L32.1166 9.74309L16.9426 12.7616L13.9517 16.4658L15.643 15.8788V15.8796C17.0086 15.3655 18.474 15.0866 20.0001 15.0866C25.271 15.0866 29.8275 18.4146 31.9908 23.2445C33.5761 20.9207 34.5024 18.1115 34.5024 15.0866C34.5023 14.5467 34.4727 14.0139 34.4151 13.4896Z" fill="#EE6161"/>
<path d="M26.8054 2.27786C24.7761 1.19657 22.4593 0.584259 19.9999 0.584259C15.3289 0.584259 11.1735 2.79279 8.52174 6.22283L7.63428 8.85126L26.1397 6.36882L26.6876 5.18938L28.2843 3.40363L26.8054 2.27786Z" fill="#F79595"/>
<path d="M19.1375 4.84162C11.6191 4.1444 8.52173 6.22283 8.52173 6.22283C6.62559 8.67364 5.49756 11.7484 5.49756 15.0866C5.49756 17.4252 6.05145 19.6345 7.03457 21.5906L11.405 16.1203L24.4347 5.28769L19.1375 4.84162Z" fill="#EE6161"/>
<path d="M34.415 13.4896H34.4142C22.0683 10.6337 15.6429 15.8788 15.6429 15.8788V15.8796C12.2915 17.1393 8.00845 23.2453 8.00845 23.2453C7.64932 22.7179 7.32369 22.1656 7.03467 21.5914C7.03467 21.5914 7.03467 21.5914 7.03467 21.5907C7.04324 21.4808 7.93678 10.5075 19.1376 4.84163H19.1384C21.2908 3.75256 23.8242 2.85979 26.8055 2.27786C30.9398 4.47861 33.8822 8.62146 34.415 13.4896Z" fill="#F37C7C"/>
<path d="M30.583 27.4908H29.6631V26.6708C33.1128 23.792 35.0864 19.5868 35.0864 15.0865C35.0864 12.9055 34.6305 10.8006 33.7314 8.83031C33.5974 8.53662 33.2509 8.4073 32.9573 8.5413C32.6637 8.67529 32.5343 9.02188 32.6683 9.31541C33.1704 10.4157 33.5216 11.5619 33.7213 12.7416C27.6309 11.4824 23.0455 12.2012 20.2297 13.0544C17.3522 13.9262 15.7188 15.0863 15.3521 15.3653C14.3582 15.7467 13.4035 16.2515 12.5061 16.8744C10.6191 18.1844 9.05946 19.9621 7.94624 22.0532C7.83748 21.8653 7.73364 21.6749 7.63393 21.4824C7.72297 20.7252 8.23479 17.2834 10.4855 13.548C11.9693 11.0853 13.9104 8.97521 16.2546 7.27655C19.1423 5.18409 22.6595 3.71135 26.7089 2.89454C28.5928 3.93158 30.24 5.40502 31.4927 7.23503C31.6059 7.40042 31.789 7.48938 31.9754 7.48938C32.089 7.48938 32.204 7.45619 32.3048 7.38709C32.5711 7.2048 32.6392 6.84123 32.457 6.57496C29.6385 2.45798 24.9817 0 19.9999 0L19.9811 0.000233707C19.6585 0.000233707 19.3969 0.261752 19.3969 0.584502C19.3969 0.907251 19.6585 1.16877 19.9811 1.16877L19.9999 1.16854C21.7244 1.16854 23.4068 1.48786 24.9732 2.08755C22.8332 2.62064 20.8455 3.34131 19.0264 4.24568C15.1482 3.90416 12.4251 4.28767 10.6791 4.75205C12.6163 3.00563 15.0149 1.82603 17.5916 1.37661C17.9096 1.32115 18.1223 1.0185 18.0668 0.700654C18.0114 0.382657 17.709 0.169827 17.3909 0.225372C13.9358 0.827947 10.7762 2.64027 8.49405 5.32852C6.1851 8.04817 4.91357 11.5137 4.91357 15.0863C4.91357 19.5551 6.86456 23.7414 10.2748 26.6185V27.4907H9.49486C9.15481 27.4907 8.84468 27.6774 8.68545 27.9778C8.52622 28.2782 8.54585 28.6396 8.73671 28.921L9.29177 29.7392C9.73121 30.3871 10.3477 30.8616 11.0666 31.1179L11.289 32.6271C11.3318 32.9175 11.5813 33.1262 11.8664 33.1262C11.8947 33.1262 11.9234 33.1242 11.9523 33.1199C12.2715 33.0728 12.4922 32.7759 12.4451 32.4566L12.2795 31.3328C12.2894 31.3329 12.2993 31.3334 12.3092 31.3334C13.1052 31.3334 13.8729 31.0724 14.5173 30.5747L15.688 29.6707L15.7093 29.7702C15.9803 31.0388 17.1186 31.9596 18.4159 31.9596C18.9665 31.9596 19.5059 31.7938 19.961 31.4879C20.4158 31.7935 20.9555 31.9596 21.5064 31.9596C22.8036 31.9596 23.9419 31.0389 24.213 29.7702L24.2563 29.5674L25.5607 30.5747C26.2132 31.0787 26.992 31.3397 27.7985 31.3331L27.632 32.4626C27.4127 33.9506 26.722 35.3499 25.678 36.4304L24.4114 35.6421C24.2697 35.554 24.097 35.5306 23.9368 35.578C23.7767 35.6254 23.6446 35.7391 23.5737 35.8903C22.9418 37.2383 21.7623 38.2591 20.3375 38.691L19.9657 38.8037L19.6877 38.7148C18.298 38.2708 17.1459 37.2585 16.5266 35.9375L16.5045 35.8903C16.4336 35.7392 16.3015 35.6255 16.1414 35.578C15.9812 35.5306 15.8085 35.554 15.6668 35.6421L14.4 36.4304C13.8941 35.9075 13.4714 35.3121 13.1416 34.6574C12.9965 34.3692 12.6452 34.2533 12.357 34.3984C12.0688 34.5436 11.9528 34.8948 12.098 35.1831C12.5249 36.0307 13.0862 36.793 13.7661 37.4485C14.0452 37.7179 14.4702 37.7629 14.7996 37.558L15.75 36.9666C16.5478 38.3191 17.8257 39.3466 19.332 39.8279L19.7833 39.9721C19.8411 39.9906 19.9011 39.9998 19.961 39.9998C20.0181 39.9998 20.0752 39.9914 20.1306 39.9747L20.6764 39.8092C22.2078 39.3449 23.5074 38.324 24.3238 36.964L25.2784 37.558C25.6077 37.763 26.0328 37.7178 26.3116 37.4488C27.6395 36.1683 28.5189 34.4581 28.788 32.6331L29.0114 31.1178C29.7303 30.8615 30.3468 30.387 30.7862 29.7391L31.3412 28.921C31.532 28.6396 31.5518 28.2781 31.3925 27.9777C31.2333 27.6773 30.923 27.4908 30.583 27.4908ZM29.663 25.1016V20.5148C30.3055 21.3307 30.8616 22.2277 31.3188 23.1901C30.8298 23.8709 30.2765 24.5108 29.663 25.1016ZM20.6345 14.1528C23.368 13.3349 27.8635 12.6533 33.8739 13.9681C33.9032 14.3382 33.9178 14.7111 33.9178 15.0864C33.9178 17.5748 33.2628 19.9649 32.0534 22.0528C30.94 19.9621 29.3808 18.1842 27.4939 16.8744C25.2583 15.3225 22.6669 14.5022 19.9999 14.5022C19.8521 14.5022 19.7046 14.5051 19.5573 14.5101C19.8934 14.3876 20.2519 14.2673 20.6345 14.1528ZM13.1723 17.8344C15.2113 16.4189 17.5722 15.6708 20 15.6708C22.4277 15.6708 24.7887 16.4189 26.8277 17.8344C27.4197 18.2453 27.9765 18.7071 28.4946 19.2131V27.1384C28.4921 27.1364 28.4896 27.1348 28.4872 27.1328L24.8928 24.1503C24.2089 23.5828 23.3429 23.2702 22.4542 23.2702H22.379L22.4862 23.1095C22.6652 22.8411 22.5926 22.4783 22.3241 22.2993C22.0557 22.1204 21.6929 22.1928 21.5139 22.4614L20.8012 23.5305C20.6309 23.7859 20.346 23.9384 20.0391 23.9384C19.7322 23.9384 19.4472 23.7859 19.2769 23.5305L18.5642 22.4614C18.3852 22.1929 18.0224 22.1204 17.754 22.2993C17.4855 22.4783 17.4129 22.8411 17.592 23.1095L17.6991 23.2702H17.6239C16.7353 23.2702 15.8692 23.5828 15.1853 24.1503L11.591 27.1327C11.5441 27.1717 11.4944 27.2065 11.4435 27.2394V19.2733C11.9789 18.7436 12.5567 18.2616 13.1723 17.8344ZM8.91947 6.66525C9.37216 6.4088 11.9024 5.13307 17.1188 5.30001C16.5743 5.63258 16.0468 5.98275 15.5384 6.35232C13.0644 8.15108 11.0178 10.3856 9.45513 12.9937C7.93291 15.5343 7.17422 17.9114 6.80099 19.5126C6.33015 18.1048 6.08203 16.6137 6.08203 15.0864C6.08203 12.0393 7.08526 9.07742 8.91947 6.66525ZM8.68047 23.1883C9.12295 22.2571 9.65806 21.3872 10.2747 20.593V25.0424C9.68564 24.4677 9.15318 23.847 8.68047 23.1883ZM23.07 29.5262C22.9135 30.2592 22.2557 30.7912 21.5062 30.7912C21.1371 30.7912 20.7767 30.6622 20.4923 30.4287L20.4803 30.4188C20.1793 30.1716 19.7424 30.1717 19.4407 30.4196L19.4305 30.4279C19.1453 30.6621 18.7849 30.7912 18.4157 30.7912C17.6662 30.7912 17.0085 30.2592 16.8519 29.5262L16.7135 28.8787L16.885 28.7463C17.2627 28.4546 17.7334 28.294 18.2106 28.294H21.8672C22.3443 28.294 22.8151 28.4546 23.1927 28.7462L23.2305 28.7754L23.07 29.5262ZM29.819 29.0833C29.4335 29.6517 28.8477 30.0244 28.1695 30.1329C27.4913 30.2416 26.8184 30.0699 26.2748 29.6501L23.907 27.8214C23.3258 27.3726 22.6014 27.1255 21.8672 27.1255H18.2106C17.4763 27.1255 16.7519 27.3726 16.1708 27.8214L13.8029 29.6501C13.2593 30.0699 12.5864 30.2417 11.9082 30.1329C11.23 30.0244 10.6442 29.6517 10.2587 29.0833L9.97115 28.6594H10.5983C11.2318 28.6594 11.8492 28.4366 12.3368 28.032L15.9312 25.0495C16.4058 24.6556 17.0069 24.4388 17.6236 24.4388H18.5106C18.9016 24.8614 19.4523 25.1069 20.0389 25.1069C20.6255 25.1069 21.1762 24.8614 21.5672 24.4388H22.4542C23.0709 24.4388 23.6719 24.6556 24.1466 25.0495L27.741 28.0321C28.2286 28.4366 28.846 28.6594 29.4794 28.6594H30.1066L29.819 29.0833Z" fill="black"/>
<path d="M20.0389 18.4288C20.3615 18.4288 20.6231 18.1673 20.6231 17.8445V17.5614C20.6231 17.2386 20.3615 16.9771 20.0389 16.9771C19.7162 16.9771 19.4546 17.2386 19.4546 17.5614V17.8445C19.4546 18.1672 19.7162 18.4288 20.0389 18.4288Z" fill="black"/>
<path d="M13.4537 20.519L13.8787 20.8187C14.4028 21.1884 15.0112 21.3742 15.6207 21.3742C16.1887 21.3742 16.7577 21.2128 17.26 20.8887L17.8121 20.5325C18.0832 20.3576 18.1613 19.996 17.9863 19.7248C17.8113 19.4538 17.4497 19.3757 17.1786 19.5507L16.6265 19.9068C15.9877 20.3189 15.1734 20.3021 14.5522 19.8639L14.1271 19.5641C13.8634 19.3781 13.4989 19.4412 13.3129 19.7049C13.1269 19.9686 13.19 20.3329 13.4537 20.519Z" fill="black"/>
<path d="M22.2656 20.5323L22.8177 20.8886C23.3202 21.2127 23.889 21.374 24.4571 21.374C25.0665 21.374 25.675 21.1882 26.199 20.8185L26.6241 20.5188C26.8878 20.3327 26.9507 19.9683 26.7648 19.7046C26.5787 19.4409 26.2142 19.3779 25.9505 19.5638L25.5255 19.8636C24.9042 20.3019 24.09 20.3186 23.4512 19.9066L22.8991 19.5504C22.6281 19.3756 22.2664 19.4535 22.0914 19.7246C21.9165 19.9959 21.9945 20.3574 22.2656 20.5323Z" fill="black"/>
</svg>
