<svg width="40" height="40" viewBox="0 0 40 40" fill="none" xmlns="http://www.w3.org/2000/svg">
<path d="M39.3355 20.1774L35.1535 23.9271C35.0832 23.9901 35.0568 24.0888 35.0862 24.1786L36.8352 29.5166C36.8795 29.6515 36.7966 29.7949 36.6577 29.824L31.1581 30.9738C31.0655 30.9932 30.9931 31.0655 30.9738 31.1582L29.8239 36.6577C29.7949 36.7967 29.6515 36.8795 29.5166 36.8353L24.1786 35.0862C24.0889 35.0567 23.9902 35.0832 23.9271 35.1535L20.1775 39.3355C20.0828 39.441 19.9175 39.441 19.8228 39.3355L16.0731 35.1535C16.01 35.0832 15.9114 35.0568 15.8216 35.0862L10.4836 36.8352C10.3487 36.8794 10.2053 36.7966 10.1762 36.6576L9.02639 31.1581C9.00701 31.0655 8.93459 30.9931 8.84201 30.9737L3.34249 29.8239C3.20351 29.7948 3.1207 29.6515 3.16492 29.5165L4.91405 24.1786C4.94351 24.0888 4.91702 23.9901 4.84671 23.9271L0.664609 20.1774C0.559063 20.0827 0.559063 19.9174 0.664609 19.8227L4.84655 16.073C4.91687 16.01 4.94327 15.9113 4.9139 15.8215L3.16484 10.4835C3.12062 10.3485 3.20351 10.2052 3.34242 10.1761L8.84194 9.02627C8.93459 9.00689 9.00694 8.93447 9.02631 8.84189L10.1762 3.34235C10.2052 3.20337 10.3486 3.12055 10.4835 3.16477L15.8215 4.91392C15.9112 4.94337 16.0099 4.91689 16.0729 4.84657L19.8227 0.664533C19.9174 0.558986 20.0827 0.558986 20.1774 0.664533L23.9271 4.84649C23.9901 4.91681 24.0888 4.94321 24.1785 4.91384L29.5166 3.16477C29.6515 3.12055 29.7949 3.20344 29.8239 3.34235L30.9738 8.84189C30.9931 8.93455 31.0655 9.00689 31.1581 9.02627L36.6577 10.1761C36.7966 10.2052 36.8795 10.3485 36.8352 10.4835L35.0861 15.8214C35.0566 15.9112 35.0831 16.0099 35.1534 16.0729L39.3354 19.8226C39.4411 19.9174 39.4411 20.0827 39.3355 20.1774Z" fill="#FECE85"/>
<path d="M13.4906 4.24L10.2837 3.18867C10.3406 3.15352 10.4132 3.14188 10.4835 3.16445L13.6904 4.215C13.6311 4.25242 13.5585 4.2618 13.4906 4.24Z" fill="#FEC165"/>
<path d="M22.0449 34.342L24.1108 35.0757C24.0422 35.0726 23.9743 35.1007 23.9274 35.1537L20.1772 39.3355C20.0828 39.4409 19.9173 39.4409 19.8229 39.3355L18.5444 37.9096L21.7935 34.4092C21.8568 34.3389 21.9551 34.3123 22.0449 34.342Z" fill="#FEC165"/>
<path d="M29.1947 8.48338L28.1294 3.61876L29.5163 3.16454C29.6513 3.12087 29.7949 3.2036 29.8238 3.34251L30.9734 8.84174C30.9812 8.8808 30.9992 8.91588 31.0241 8.94479L29.3788 8.66775C29.2868 8.64807 29.2142 8.57627 29.1947 8.48338Z" fill="#FEC165"/>
<path d="M35.1536 23.9274C35.0833 23.9898 35.0568 24.089 35.0865 24.1787L36.8355 29.5164C36.8792 29.6514 36.7965 29.795 36.6576 29.8239L31.1584 30.9735C31.0655 30.993 30.9929 31.0656 30.9734 31.1585L29.8237 36.6577C29.7948 36.7966 29.6512 36.8794 29.5162 36.8357L27.8125 36.2776C27.8577 36.244 27.8913 36.1948 27.9038 36.1348L29.1268 29.7848C29.1463 29.6919 29.2181 29.6194 29.311 29.5998L34.1491 28.6844C34.288 28.6554 34.3708 28.5119 34.3263 28.3776L32.756 23.5043C32.7263 23.4146 32.7529 23.3162 32.8231 23.253L36.4195 20.1772C36.5249 20.0827 36.5249 19.9172 36.4195 19.8229L32.6983 16.0891C32.628 16.0259 32.6015 15.9275 32.6304 15.8378L34.5051 9.8094C34.5137 9.78205 34.5176 9.75479 34.5168 9.72823L36.6576 10.1762C36.7965 10.2051 36.8793 10.3487 36.8356 10.4837L35.0865 15.8214C35.0569 15.9111 35.0834 16.0103 35.1537 16.0727L39.3354 19.8229C39.4408 19.9173 39.4408 20.0828 39.3354 20.1772L35.1536 23.9274Z" fill="#FEC165"/>
<path d="M19.9998 32.2064C26.7411 32.2064 32.2061 26.7414 32.2061 20C32.2061 13.2587 26.7411 7.79369 19.9998 7.79369C13.2584 7.79369 7.79346 13.2587 7.79346 20C7.79346 26.7414 13.2584 32.2064 19.9998 32.2064Z" fill="#FDB441"/>
<path d="M32.2066 20C32.2066 26.7418 26.7418 32.2066 20.0001 32.2066C18.6304 32.2066 17.3137 31.9811 16.0845 31.5643C16.879 31.7274 17.7016 31.8125 18.5445 31.8125C25.2862 31.8125 30.751 26.3476 30.751 19.6067C30.751 14.2347 27.281 9.67361 22.4601 8.04166C28.0225 9.17955 32.2066 14.1012 32.2066 20Z" fill="#FEA613"/>
<path d="M13.5214 23.1181C14.4615 23.1181 15.2235 22.356 15.2235 21.416C15.2235 20.4759 14.4615 19.7139 13.5214 19.7139C12.5814 19.7139 11.8193 20.4759 11.8193 21.416C11.8193 22.356 12.5814 23.1181 13.5214 23.1181Z" fill="#FB8801"/>
<path d="M26.4785 23.1181C27.4185 23.1181 28.1806 22.356 28.1806 21.416C28.1806 20.4759 27.4185 19.7139 26.4785 19.7139C25.5384 19.7139 24.7764 20.4759 24.7764 21.416C24.7764 22.356 25.5384 23.1181 26.4785 23.1181Z" fill="#FB8801"/>
<path d="M10.2151 26.2718C10.0404 25.9997 9.67818 25.921 9.40623 26.0956C9.1342 26.2704 9.05537 26.6325 9.23005 26.9044C11.598 30.5908 15.6242 32.7917 20.0001 32.7917C27.0535 32.7917 32.7918 27.0533 32.7918 20C32.7918 12.9467 27.0535 7.20837 20.0001 7.20837C12.9468 7.20837 7.2085 12.9467 7.2085 20C7.2085 21.4972 7.4649 22.9638 7.97053 24.359C8.08076 24.6629 8.41631 24.82 8.72029 24.7099C9.0242 24.5997 9.18131 24.264 9.07115 23.9601C8.61193 22.6932 8.37912 21.3608 8.37912 20C8.37912 13.5922 13.5922 8.37908 20 8.37908C26.4079 8.37908 31.621 13.5922 31.621 20C31.621 26.4079 26.408 31.621 20.0001 31.621C16.0246 31.621 12.3666 29.6213 10.2151 26.2718Z" fill="black"/>
<path d="M39.7262 19.3868L35.713 15.7885L37.3915 10.6658C37.4644 10.4435 37.439 10.1999 37.322 9.99736C37.2049 9.79479 37.0064 9.65111 36.7774 9.60322L31.5002 8.49978L31.3275 7.67384C31.2613 7.35736 30.9506 7.15462 30.6348 7.22064C30.3183 7.28681 30.1154 7.59689 30.1815 7.91338L30.4008 8.96205C30.4679 9.28221 30.7182 9.53236 31.0383 9.59924L36.1582 10.6697L34.5299 15.6391C34.4282 15.9493 34.5195 16.2906 34.7627 16.5088L38.6563 20L34.7627 23.4912C34.5195 23.7093 34.4281 24.0506 34.5299 24.3608L36.1581 29.3303L31.0381 30.4008C30.7178 30.4677 30.4676 30.718 30.4006 31.0383L29.3301 36.1583L24.3607 34.53C24.0505 34.4283 23.7089 34.5197 23.4912 34.7628L20 38.6566L16.5088 34.7629C16.2908 34.5198 15.9493 34.4284 15.6392 34.5301L10.6697 36.1584L9.59928 31.0384C9.53233 30.718 9.28201 30.4677 8.9617 30.4008L3.84179 29.3303L5.47007 24.3609C5.57179 24.0506 5.48038 23.7092 5.23726 23.4912L1.34351 20L5.23718 16.5089C5.4803 16.2909 5.57171 15.9496 5.46999 15.6393L3.84171 10.6698L8.96162 9.59932C9.28201 9.53236 9.53233 9.28205 9.59928 8.96174L10.6697 3.8418L15.6391 5.47009C15.9497 5.57181 16.2908 5.4804 16.5088 5.23728L20 1.34352L23.4912 5.23735C23.7093 5.48048 24.0507 5.57189 24.3607 5.47001L29.3303 3.84173L29.6263 5.25845C29.6925 5.57493 30.0034 5.77798 30.319 5.71165C30.6355 5.64548 30.8384 5.33532 30.7723 5.01892L30.3968 3.22266C30.3489 2.9936 30.2053 2.79516 30.0028 2.67805C29.8003 2.56102 29.5566 2.53563 29.3342 2.60852L24.2115 4.28704L20.6132 0.273751C20.4571 0.0997658 20.2336 0 20 0C19.7663 0 19.5428 0.0997658 19.3868 0.273751L15.7884 4.28704L10.6658 2.60852C10.4436 2.53571 10.1998 2.56102 9.99732 2.67805C9.79475 2.79508 9.65115 2.99352 9.60318 3.22251L8.49983 8.49978L3.22249 9.60314C2.99351 9.65111 2.79499 9.79471 2.67796 9.99728C2.56093 10.1998 2.53562 10.4435 2.60843 10.6657L4.28694 15.7884L0.273671 19.3868C0.0997654 19.5429 0 19.7664 0 20C0 20.2337 0.0997654 20.4572 0.273749 20.6132L4.28702 24.2116L2.60851 29.3343C2.53562 29.5565 2.56101 29.8002 2.67804 30.0027C2.79507 30.2053 2.99351 30.3489 3.22257 30.3969L8.49983 31.5002L9.60318 36.7776C9.65115 37.0066 9.79475 37.2051 9.99732 37.322C10.1999 37.4391 10.4435 37.4644 10.6658 37.3916L15.7884 35.713L19.3868 39.7263C19.5429 39.9002 19.7663 40 20 40C20.2336 40 20.4571 39.9002 20.6132 39.7262L24.2116 35.713L29.3341 37.3915C29.5565 37.4643 29.8002 37.439 30.0027 37.3219C30.2052 37.2049 30.3488 37.0064 30.3967 36.7775L31.5002 31.5002L36.7775 30.3968C37.0065 30.3489 37.2049 30.2052 37.322 30.0027C37.439 29.8001 37.4644 29.5565 37.3915 29.3343L35.7131 24.2116L39.7261 20.6133C39.9002 20.4573 40 20.2338 40 20C40 19.7663 39.9001 19.5428 39.7262 19.3868Z" fill="black"/>
<path d="M16.4402 18.6064V17.1309C16.4402 16.8076 16.1781 16.5456 15.8549 16.5456C15.5317 16.5456 15.2695 16.8076 15.2695 17.1309V18.6064C15.2695 18.9296 15.5316 19.1917 15.8549 19.1917C16.1782 19.1917 16.4402 18.9296 16.4402 18.6064Z" fill="black"/>
<path d="M24.7303 18.6064V17.1309C24.7303 16.8076 24.4682 16.5456 24.1449 16.5456C23.8215 16.5456 23.5596 16.8076 23.5596 17.1309V18.6064C23.5596 18.9296 23.8216 19.1917 24.1449 19.1917C24.4682 19.1917 24.7303 18.9296 24.7303 18.6064Z" fill="black"/>
<path d="M19.9998 26.4056C21.4867 26.4056 22.8027 25.4587 23.2742 24.0494C23.3768 23.7429 23.2114 23.4111 22.9049 23.3086C22.5986 23.206 22.2666 23.3713 22.164 23.6779C21.8524 24.6092 20.9826 25.2349 19.9997 25.2349C19.0167 25.2349 18.147 24.6091 17.8355 23.6778C17.7329 23.3712 17.4012 23.2058 17.0946 23.3083C16.7881 23.4109 16.6227 23.7425 16.7252 24.0492C17.1968 25.4586 18.5128 26.4056 19.9998 26.4056Z" fill="black"/>
</svg>
