<svg width="40" height="40" viewBox="0 0 40 40" fill="none" xmlns="http://www.w3.org/2000/svg">
<path d="M39.9184 20.1837L35.6104 24.0464C35.538 24.1114 35.5107 24.213 35.541 24.3055L37.3428 29.8044C37.3884 29.9434 37.303 30.0911 37.1598 30.121L31.4945 31.3055C31.399 31.3255 31.3245 31.4001 31.3045 31.4955L30.1199 37.1609C30.09 37.304 29.9423 37.3894 29.8034 37.3438L24.3045 35.5419C24.212 35.5116 24.1103 35.5388 24.0454 35.6113L20.1827 39.9194C20.0852 40.0281 19.9148 40.0281 19.8173 39.9194L15.9545 35.6113C15.8895 35.5389 15.7879 35.5116 15.6955 35.5419L10.1965 37.3437C10.0575 37.3893 9.90984 37.3039 9.87992 37.1608L8.69539 31.4954C8.67547 31.3999 8.60086 31.3254 8.50539 31.3054L2.84008 30.1209C2.69695 30.0909 2.61156 29.9432 2.65711 29.8043L4.45898 24.3054C4.4893 24.2129 4.46211 24.1112 4.38961 24.0463L0.0815625 20.1837C-0.0271875 20.0862 -0.0271875 19.9158 0.0815625 19.8183L4.38961 15.9555C4.46203 15.8905 4.4893 15.7889 4.45898 15.6965L2.65719 10.1975C2.61164 10.0585 2.69703 9.91085 2.84016 9.88093L8.50555 8.6964C8.60102 8.67648 8.67555 8.60187 8.69555 8.5064L9.88008 2.84109C9.91 2.69796 10.0577 2.61257 10.1966 2.65812L15.6955 4.45999C15.788 4.4903 15.8897 4.46312 15.9546 4.39062L19.8173 0.0825696C19.9148 -0.0261804 20.0852 -0.0261804 20.1827 0.0825696L24.0455 4.39062C24.1105 4.46304 24.2121 4.4903 24.3045 4.45999L29.8035 2.6582C29.9425 2.61265 30.0902 2.69804 30.1201 2.84116L31.3046 8.50655C31.3245 8.60202 31.3991 8.67655 31.4946 8.69656L37.1599 9.88109C37.303 9.91101 37.3884 10.0587 37.3429 10.1976L35.541 15.6966C35.5107 15.7891 35.5379 15.8907 35.6104 15.9556L39.9184 19.8184C40.0272 19.9158 40.0272 20.0861 39.9184 20.1837Z" fill="#FECE85"/>
<path d="M13.2946 3.76585L9.99091 2.68288C10.0496 2.64671 10.1243 2.63468 10.1968 2.65796L13.5004 3.74015C13.4393 3.77866 13.3646 3.78835 13.2946 3.76585Z" fill="#FEC165"/>
<path d="M22.1065 34.7751L24.2347 35.5308C24.1639 35.5276 24.094 35.5565 24.0458 35.6112L20.1826 39.919C20.0853 40.0276 19.9148 40.0276 19.8176 39.919L18.5006 38.4501L21.8476 34.8442C21.9127 34.7719 22.014 34.7445 22.1065 34.7751Z" fill="#FEC165"/>
<path d="M29.472 8.13694L28.3745 3.12562L29.8032 2.65773C29.9423 2.61273 30.0902 2.69796 30.12 2.84101L31.3043 8.50601C31.3123 8.54624 31.3309 8.58241 31.3566 8.6121L29.6617 8.32671C29.5668 8.30655 29.492 8.23265 29.472 8.13694Z" fill="#FEC165"/>
<path d="M35.6105 24.0465C35.5381 24.1108 35.5108 24.2129 35.5413 24.3054L37.3431 29.804C37.3881 29.943 37.3029 30.091 37.1598 30.1208L31.4948 31.3051C31.3991 31.3252 31.3244 31.3999 31.3043 31.4956L30.12 37.1606C30.0902 37.3037 29.9423 37.389 29.8032 37.3439L28.048 36.7691C28.0947 36.7344 28.1292 36.6838 28.1421 36.6219L29.4019 30.0806C29.422 29.9849 29.496 29.9102 29.5917 29.8901L34.5757 28.9469C34.7188 28.9172 34.804 28.7693 34.7582 28.631L33.1405 23.6109C33.11 23.5184 33.1373 23.4171 33.2097 23.3519L36.9145 20.1834C37.023 20.0861 37.023 19.9156 36.9145 19.8184L33.081 15.972C33.0087 15.9069 32.9813 15.8056 33.0111 15.7131L34.9423 9.50304C34.9511 9.47492 34.9551 9.44679 34.9543 9.41945L37.1597 9.88093C37.3028 9.9107 37.388 10.0586 37.343 10.1977L35.5412 15.6963C35.5106 15.7888 35.538 15.8909 35.6103 15.9552L39.9181 19.8184C40.0266 19.9157 40.0266 20.0862 39.9181 20.1834L35.6105 24.0465Z" fill="#FEC165"/>
<path d="M20 32.5751C26.9446 32.5751 32.5743 26.9454 32.5743 20.0008C32.5743 13.0562 26.9446 7.42648 20 7.42648C13.0554 7.42648 7.42572 13.0562 7.42572 20.0008C7.42572 26.9454 13.0554 32.5751 20 32.5751Z" fill="#FDB441"/>
<path d="M32.5745 20.0008C32.5745 26.9457 26.9449 32.5753 20 32.5753C18.589 32.5753 17.2326 32.343 15.9663 31.9136C16.7847 32.0816 17.6322 32.1693 18.5005 32.1693C25.4454 32.1693 31.0751 26.5397 31.0751 19.5955C31.0751 14.0616 27.5004 9.36304 22.5342 7.68187C28.2643 8.85414 32.5745 13.9241 32.5745 20.0008Z" fill="#FEA613"/>
<path d="M15.73 19.151C15.4064 19.151 15.144 18.8887 15.144 18.5651V17.0451C15.144 16.7215 15.4064 16.4591 15.73 16.4591C16.0536 16.4591 16.3159 16.7215 16.3159 17.0451V18.5651C16.3159 18.8887 16.0536 19.151 15.73 19.151Z" fill="#FB8801"/>
<path d="M24.27 19.151C23.9463 19.151 23.6841 18.8887 23.6841 18.5651V17.0451C23.6841 16.7215 23.9463 16.4591 24.27 16.4591C24.5937 16.4591 24.856 16.7215 24.856 17.0451V18.5651C24.856 18.8887 24.5937 19.151 24.27 19.151Z" fill="#FB8801"/>
<path d="M13.3262 23.2129C14.2946 23.2129 15.0796 22.4278 15.0796 21.4594C15.0796 20.491 14.2946 19.706 13.3262 19.706C12.3578 19.706 11.5728 20.491 11.5728 21.4594C11.5728 22.4278 12.3578 23.2129 13.3262 23.2129Z" fill="#FB8801"/>
<path d="M26.6738 23.2129C27.6422 23.2129 28.4273 22.4278 28.4273 21.4594C28.4273 20.491 27.6422 19.706 26.6738 19.706C25.7055 19.706 24.9204 20.491 24.9204 21.4594C24.9204 22.4278 25.7055 23.2129 26.6738 23.2129Z" fill="#FB8801"/>
<path d="M20 26.5824C18.4755 26.5824 17.1263 25.6116 16.643 24.1666C16.5403 23.8598 16.7059 23.5277 17.0127 23.4251C17.3196 23.3225 17.6516 23.4879 17.7543 23.7948C18.0777 24.7612 18.9801 25.4105 20.0001 25.4105C21.0199 25.4105 21.9224 24.7612 22.2458 23.795C22.3484 23.4881 22.6803 23.3227 22.9874 23.4252C23.2942 23.5279 23.4598 23.8599 23.357 24.1668C22.8736 25.6116 21.5246 26.5824 20 26.5824Z" fill="#FB8801"/>
</svg>
