<svg width="15" height="10" viewBox="0 0 15 10" fill="none" xmlns="http://www.w3.org/2000/svg">
<path d="M14.8649 4.69254L9.86492 0.109215C9.74285 -0.0018783 9.56586 -0.032386 9.4157 0.0351531C9.26434 0.101481 9.16668 0.251208 9.16668 0.416403V1.24976C9.16668 1.36777 9.21672 1.48047 9.30461 1.55941L12.2011 4.16644H0.41668C0.186367 4.16644 0 4.35281 0 4.58312V5.41644C0 5.64675 0.186367 5.83312 0.41668 5.83312H12.2011L9.30461 8.44015C9.21672 8.5191 9.16668 8.63179 9.16668 8.7498V9.58312C9.16668 9.74832 9.26434 9.89808 9.4157 9.96437C9.46941 9.98839 9.5268 9.99976 9.58336 9.99976C9.68551 9.99976 9.78641 9.96191 9.86492 9.89031L14.8649 5.30699C14.9512 5.22804 15 5.11656 15 4.99976C15 4.88297 14.9512 4.77148 14.8649 4.69254Z" fill="#4D7FFF"/>
</svg>
